<?xml version="1.0" encoding="UTF-8" standalone="no"?>
<!DOCTYPE svg PUBLIC "-//W3C//DTD SVG 1.1//EN" "http://www.w3.org/Graphics/SVG/1.1/DTD/svg11.dtd">
<svg width="100%" height="100%" viewBox="0 0 295 295" version="1.1" xmlns="http://www.w3.org/2000/svg" xmlns:xlink="http://www.w3.org/1999/xlink" xml:space="preserve" xmlns:serif="http://www.serif.com/" style="fill-rule:evenodd;clip-rule:evenodd;stroke-linejoin:round;stroke-miterlimit:2;">
    <g>
        <path id="svg_18" d="M147.7,0.288C66.412,0.288 0.288,66.418 0.288,147.7C0.288,228.981 66.412,295.111 147.7,295.111C228.987,295.111 295.111,228.981 295.111,147.7C295.111,66.418 228.987,0.288 147.7,0.288ZM147.7,282.827C73.19,282.827 12.572,222.209 12.572,147.7C12.572,73.19 73.19,12.572 147.7,12.572C222.209,12.572 282.827,73.19 282.827,147.7C282.827,222.209 222.209,282.827 147.7,282.827Z" style="fill:white;fill-rule:nonzero;"/>
        <g transform="matrix(1.1157,-0.46214,0.46214,1.1157,-95.1735,-10.097)">
            <path d="M139.886,104.067L130.379,104.067L72.456,128.06L65.733,134.782L41.741,192.706L41.741,202.213L65.733,260.137L72.456,266.859L130.379,290.852L139.886,290.852L197.81,266.859L204.532,260.137L228.525,202.213L228.525,192.706L204.532,134.782L197.81,128.06L139.886,104.067ZM135.133,115.543L193.056,139.536L217.049,197.459L193.056,255.383L135.133,279.376L77.209,255.383L53.216,197.459L77.209,139.536L135.133,115.543Z" style="fill:white;"/>
        </g>
    </g>
</svg>
