<?xml version="1.0"?>
<svg width="295" height="295" xmlns="http://www.w3.org/2000/svg" xmlns:svg="http://www.w3.org/2000/svg">
 <!-- Created with SVG-edit - https://github.com/SVG-Edit/svgedit-->
 <g class="layer">
  <title>Layer 1</title>
  <path d="m147.699587,0.287913c-81.28779,0 -147.41168,66.1302 -147.41168,147.4115c0,81.2815 66.12389,147.4117 147.41168,147.4117c81.28765,0 147.41155,-66.1302 147.41155,-147.4117c0,-81.2813 -66.1239,-147.4115 -147.41155,-147.4115zm0,282.5391c-74.50969,0 -135.12757,-60.6179 -135.12757,-135.1276c0,-74.5097 60.61788,-135.1275 135.12757,-135.1275c74.50969,0 135.12744,60.6178 135.12744,135.1275c0,74.5097 -60.61775,135.1276 -135.12744,135.1276z" fill="white" id="svg_10" stroke-width="0.575827"/>
  <path d="m244.535337,43.334213c-1.47835,0 -2.95618,0.5659 -4.08351,1.694l-35.84709,35.8436l-4.08351,-4.0836c-6.75675,-6.7566 -17.75034,-6.7566 -24.50697,0l-4.78646,4.7866c-6.43933,-3.0671 -14.3939,-1.9426 -19.71867,3.3806l-20.42149,20.4233l-4.0835,-4.0853c-2.25625,-2.2563 -5.91274,-2.2563 -8.169,0c-2.25466,2.2547 -2.25466,5.9126 0,8.169c1.31319,1.3132 62.39246,62.3909 65.34811,65.348c2.2548,2.2548 5.9142,2.2548 8.16899,0c2.25625,-2.2562 2.25625,-5.9127 0,-8.1689l-4.08548,-4.0836l20.42346,-20.4215c5.32464,-5.3246 6.44763,-13.2793 3.38055,-19.7185l4.78647,-4.7865c6.77177,-6.7719 6.77322,-17.7338 0,-24.507l-4.0835,-4.0837l35.84708,-35.8472c2.32896,-2.178 2.25467,-5.9089 0,-8.1653c-1.12812,-1.1281 -2.607,-1.694 -4.08548,-1.694zm-56.26858,39.9328c1.47901,-0.0002 2.9596,0.5625 4.08548,1.6884l16.33614,16.338c2.2577,2.2577 2.2577,5.9111 0,8.169l-4.08364,4.0854l-24.50697,-24.5071l4.08548,-4.0835c1.12588,-1.1265 2.60463,-1.6901 4.08351,-1.6902zm-20.41965,9.8537l32.67412,32.6722c2.25165,2.2533 2.25165,5.9173 0,8.1689l-20.42346,20.4216l-40.84114,-40.8412l18.55604,-20.8157c3.35249,-2.3478 7.63595,-1.93 10.03444,0.3942zm-61.32531,21.2199c-1.47888,0 -2.95921,0.5642 -4.08733,1.6923c-2.25467,2.2546 -2.25467,5.9124 0,8.167l4.08548,4.0854l-20.42148,20.4216c-5.32478,5.3232 -6.44922,13.2793 -3.38069,19.7187l-4.78647,4.7864c-6.75675,6.7552 -6.75675,17.7498 0,24.505l4.07982,4.0818l-35.01901,35.6635c-2.25769,2.2533 -2.26178,5.9131 -0.0132,8.1708c2.2473,2.2504 5.90708,2.2659 8.17084,0.013l35.02639,-35.6726l4.08719,4.0891c6.75519,6.7552 17.75021,6.7552 24.50698,0l4.78461,-4.7884c6.43025,3.064 14.38191,1.9562 19.71867,-3.3806l20.42149,-20.4216l4.08535,4.0854c2.2548,2.2548 5.91248,2.2563 8.16715,0c2.25625,-2.2561 2.25625,-5.9145 0,-8.1708l-12.2525,-12.2525l0.0211,-0.021l-8.16886,-8.1671l-0.0211,0.021l-24.50513,-24.5053l0.025,-0.025l-8.16898,-8.1707l-0.0211,0.021l-12.2525,-12.2527c-1.12733,-1.1281 -2.60476,-1.6921 -4.08364,-1.6921l0.00192,-0.0016zm8.16701,22.1138l40.84127,40.8411l-20.41965,20.4215c-2.25163,2.2533 -5.91577,2.2536 -8.16899,0l-32.67412,-32.674c-2.25322,-2.2517 -2.25322,-5.9153 0,-8.1671l20.42149,-20.4215zm-24.50684,40.8411l24.50684,24.507l-4.08351,4.0835c-2.25322,2.2534 -5.91761,2.2518 -8.17083,0l-16.336,-16.3361c-2.25178,-2.2517 -2.25178,-5.9191 0,-8.1707l4.0835,-4.0837z" id="svg_9" stroke-width="0.385066" fill="white"/>
 </g>
</svg>
