<?xml version="1.0" encoding="UTF-8"?>
<svg xmlns="http://www.w3.org/2000/svg" viewBox="0 0 512 512">
<g id="a">
<g>
<path d="M79.4,263.5h-20.2c3.86,102.65,86.65,185.44,189.3,189.3v-20.2c-91.51-3.84-165.26-77.59-169.1-169.1Z" fill="none"/>
<path d="M263.5,432.6v20.2c102.65-3.86,185.44-86.65,189.3-189.3h-20.2c-3.84,91.51-77.59,165.26-169.1,169.1Z" fill="none"/>
<path d="M248.5,79.4v-20.2c-102.65,3.86-185.44,86.65-189.3,189.3h20.2c3.84-91.51,77.59-165.26,169.1-169.1Z" fill="none"/>
<path d="M263.5,59.2v20.2c91.51,3.84,165.26,77.59,169.1,169.1h20.2c-3.86-102.65-86.65-185.44-189.3-189.3Z" fill="none"/>
<path d="M495.48,248.5h-27.67c-3.88-110.92-93.39-200.43-204.31-204.31V16.52c0-4.14-3.36-7.5-7.5-7.5s-7.5,3.36-7.5,7.5v27.67c-110.92,3.88-200.43,93.39-204.31,204.31H16.52c-4.14,0-7.5,3.36-7.5,7.5s3.36,7.5,7.5,7.5h27.67c3.88,110.92,93.39,200.43,204.31,204.31v27.67c0,4.14,3.36,7.5,7.5,7.5s7.5-3.36,7.5-7.5v-27.67c110.92-3.88,200.43-93.39,204.31-204.31h27.67c4.14,0,7.5-3.36,7.5-7.5s-3.36-7.5-7.5-7.5ZM248.5,59.2v20.2c-91.51,3.84-165.26,77.59-169.1,169.1h-20.2c3.86-102.65,86.65-185.44,189.3-189.3Zm-104.68,138.67c-1.85,0-3.34-1.5-3.34-3.34s1.5-3.34,3.34-3.34h28.25c1.88-4.04,4.51-7.86,7.89-11.24,3.28-3.28,6.97-5.84,10.86-7.71v-28.05c0-1.85,1.5-3.34,3.34-3.34,1.85,0,3.34,1.5,3.34,3.34v25.59c11.27-2.97,23.25-.46,31.57,7.75-12.59,2.91-24.18,8.99-33.55,18.36-9.23,9.23-15.25,20.59-18.21,32.95-7.94-8.21-10.42-19.9-7.62-30.96h-25.86Zm104.68,254.93c-102.65-3.86-185.44-86.65-189.3-189.3h20.2c3.84,91.51,77.59,165.26,169.1,169.1v20.2Zm12.11-69.28v-47.79c-13.29-2.28-26.61-8.01-38.49-17.05l-6.98,6.98-16.15,16.15c-1.46,1.46-3.38,2.2-5.3,2.2s-3.84-.73-5.3-2.2c-2.93-2.93-2.93-7.68,0-10.61l15.64-15.64,6.89-6.89c-12.15-12.65-20.04-27.63-23.46-42.78h-44.48c-4.14,0-7.5-3.36-7.5-7.5s3.36-7.5,7.5-7.5h42.57c-.53-17.85,5.33-34.89,17.88-47.45,12.56-12.56,29.6-18.41,47.45-17.88v-42.57c0-4.14,3.36-7.5,7.5-7.5s7.5,3.36,7.5,7.5v44.48c15.15,3.41,30.13,11.31,42.78,23.46l6.52-6.52,16.02-16.02c2.93-2.93,7.68-2.93,10.61,0,2.93,2.93,2.93,7.68,0,10.61l-16.52,16.52-6.61,6.61c9.04,11.88,14.77,25.2,17.05,38.49h47.79c4.14,0,7.5,3.36,7.5,7.5s-3.36,7.5-7.5,7.5h-46.69c-.43,16.33-6.3,31.74-17.88,43.33-11.59,11.59-27,17.46-43.33,17.88v46.69c0,4.14-3.36,7.5-7.5,7.5s-7.5-3.36-7.5-7.5Zm2.89,69.28v-20.2c91.51-3.84,165.26-77.59,169.1-169.1h20.2c-3.86,102.65-86.65,185.44-189.3,189.3Zm169.1-204.3c-3.84-91.51-77.59-165.26-169.1-169.1v-20.2c102.65,3.86,185.44,86.65,189.3,189.3h-20.2Z" fill="#ffffff"/>
</g>
</g>
<g id="b"/></svg>
