<?xml version="1.0"?>
<svg width="295" height="295" xmlns="http://www.w3.org/2000/svg" xmlns:svg="http://www.w3.org/2000/svg">
 <!-- Created with SVG-edit - https://github.com/SVG-Edit/svgedit-->
 <g class="layer">
  <title>Layer 1</title>
  <path d="m147.69951,0.287913c-81.2877,0 -147.4116,66.1302 -147.4116,147.4117c0,81.2815 66.1239,147.4117 147.4116,147.4117c81.2877,0 147.4116,-66.1302 147.4116,-147.4117c0,-81.2815 -66.1239,-147.4117 -147.4116,-147.4117zm0,282.5393c-74.5097,0 -135.1275,-60.6179 -135.1275,-135.1276c0,-74.5097 60.6178,-135.1275 135.1275,-135.1275c74.5096,0 135.1274,60.6178 135.1274,135.1275c0,74.5097 -60.6178,135.1276 -135.1274,135.1276z" id="svg_12" stroke-width="0.575827"/>
  <path d="m237.87341,41.888013c-1.4447,0 -2.8888,0.551 -3.9904,1.6535l-25.0563,23.4313l-3.9902,-3.9903c-6.6024,-6.6023 -17.3447,-6.6023 -23.9469,0l-4.6772,4.6773c-6.2922,-2.997 -14.0649,-1.8982 -19.2681,3.3033l-19.9547,19.9568l-3.9904,-3.9922c-2.2047,-2.2046 -5.7776,-2.2046 -7.9823,0c-2.2031,2.2032 -2.2031,5.7776 0,7.9824c1.2832,1.2832 60.9668,60.9653 63.8549,63.855c2.2033,2.2032 5.7792,2.2032 7.9823,0c2.2047,-2.2047 2.2047,-5.7777 0,-7.9825l-3.992,-3.9901l19.9568,-19.955c5.2029,-5.2029 6.3002,-12.9759 3.3032,-19.2681l4.6772,-4.677c6.6169,-6.6171 6.6184,-17.3286 0,-23.9469l-3.9902,-3.9904l25.0562,-23.4331c2.2757,-2.1283 2.2032,-5.7758 0,-7.9805c-1.1022,-1.1025 -2.5473,-1.6535 -3.9919,-1.6535zm-45.0113,27.4252c1.4451,-0.0001 2.8918,0.5497 3.992,1.6499l15.9627,15.9646c2.2063,2.2062 2.2063,5.7762 0,7.9824l-3.9901,3.9921l-23.9469,-23.9471l3.992,-3.9903c1.1002,-1.1008 2.5451,-1.6513 3.9903,-1.6516zm-23.9452,7.9807l0,0c1.4453,0 2.8912,0.5497 3.9922,1.6497l31.9274,31.9256c2.2003,2.2019 2.2003,5.7823 0,7.9826l-19.9567,19.9547l-39.908,-39.908l19.9549,-19.9566c1.1001,-1.1002 2.5448,-1.6499 3.9902,-1.6499l0,0.0019zm-39.908,39.9096c-1.4444,0 -2.8897,0.5502 -3.992,1.6517l-19.9531,19.955l-11.9726,-11.9727c-2.2032,-2.2046 -5.7794,-2.2046 -7.9841,0c-2.2033,2.2034 -2.2033,5.7773 0,7.9805l3.9922,3.9922l-19.9551,19.9549c-5.203,5.2015 -6.3018,12.9757 -3.3033,19.268l-4.6772,4.6771c-6.6023,6.6008 -6.6023,17.3442 0,23.9451l3.9866,3.9885l-22.8566,22.5597c-2.206,2.2018 -2.2104,5.7762 -0.013,7.9823c2.1959,2.1989 5.772,2.2143 7.984,0.013l22.8639,-22.567l3.9938,3.9957c6.6009,6.6008 17.3446,6.6008 23.9471,0l4.6752,-4.6789c6.2834,2.9939 14.0532,1.9114 19.268,-3.3035l19.9549,-19.9548l3.9922,3.992c2.2031,2.2033 5.7773,2.2047 7.9804,0c2.2047,-2.2047 2.2047,-5.7794 0,-7.9841l-11.9726,-11.9725l19.955,-19.9532c2.2046,-2.2047 2.2046,-5.7777 0,-7.9824c-2.2033,-2.203 -5.7777,-2.203 -7.9824,0l-19.9549,19.9551l-23.9451,-23.9452l19.9548,-19.955c2.2048,-2.2046 2.2048,-5.7775 0,-7.9822c-1.1023,-1.1017 -2.5457,-1.6518 -3.9902,-1.6518l0.0041,-0.0075zm-31.9275,29.589l39.9082,39.9079l-19.9533,19.9549c-2.2002,2.2018 -5.7805,2.2021 -7.9823,0l-31.9274,-31.9275c-2.2018,-2.2002 -2.2018,-5.7802 0,-7.9804l19.9548,-19.9549zm-23.9469,39.9079l23.9469,23.947l-3.9902,3.9902c-2.2017,2.2019 -5.7823,2.2003 -7.9841,0l-15.9629,-15.9629c-2.2002,-2.2001 -2.2002,-5.7837 0,-7.984l3.9903,-3.9903z" id="svg_11" stroke-width="0.376267"/>
 </g>
</svg>