<?xml version="1.0"?>
<svg width="295" height="295" xmlns="http://www.w3.org/2000/svg" xmlns:svg="http://www.w3.org/2000/svg">
 <!-- Created with SVG-edit - https://github.com/SVG-Edit/svgedit-->
 <g class="layer">
  <title>Layer 1</title>
  <path d="m147.6995,0.287913c-81.2877,0 -147.4116,66.13022 -147.4116,147.41162c0,81.28142 66.1239,147.41163 147.4116,147.41163c81.2877,0 147.4115,-66.13021 147.4115,-147.41163c0,-81.2814 -66.1238,-147.41162 -147.4115,-147.41162zm0,282.53913c-74.5097,0 -135.1276,-60.61784 -135.1276,-135.12751c0,-74.50966 60.6179,-135.12751 135.1276,-135.12751c74.5096,0 135.1275,60.61785 135.1275,135.12751c0,74.50967 -60.6179,135.12751 -135.1275,135.12751z" fill="white" id="svg_18" stroke-width="0.575827"/>
  <rect fill="#ffffff" height="14.571685" id="svg_17" rx="7.285842" ry="7.285842" stroke-dashoffset="0" stroke-linecap="round" stroke-linejoin="round" stroke-miterlimit="4" stroke-width="2.455856" transform="matrix(0 1 1 0 2110.59 1644.46)" width="149.37303" x="-1571.448769" y="-2006.856694"/>
  <rect fill="#ffffff" height="14.571685" id="svg_16" rx="7.285842" ry="7.285842" stroke-dashoffset="0" stroke-linecap="round" stroke-linejoin="round" stroke-miterlimit="4" stroke-width="2.455856" transform="matrix(0 1 1 0 2110.59 1644.46)" width="149.37303" x="-1571.448769" y="-1933.487894"/>
 </g>
</svg>