<?xml version="1.0"?>
<svg width="295" height="295" xmlns="http://www.w3.org/2000/svg" xmlns:svg="http://www.w3.org/2000/svg">
 <!-- Created with SVG-edit - https://github.com/SVG-Edit/svgedit-->
 <g class="layer">
  <title>Layer 1</title>
  <rect fill="#000000" height="14.571686" id="svg_15" rx="7.285843" ry="7.285843" stroke-dashoffset="0" stroke-linecap="round" stroke-linejoin="round" stroke-miterlimit="4" stroke-width="2.455856" transform="matrix(-1 0 0 1 -1401.22 1610.34)" width="149.37303" x="-1623.613324" y="-1469.925976"/>
  <path d="m147.699517,0.287913c-81.2877,0 -147.4116,66.1302 -147.4116,147.4115c0,81.2815 66.1239,147.4117 147.4116,147.4117c81.2877,0 147.4116,-66.1302 147.4116,-147.4117c0,-81.2813 -66.1239,-147.4115 -147.4116,-147.4115zm0,282.5391c-74.5097,0 -135.1275,-60.6179 -135.1275,-135.1276c0,-74.5097 60.6178,-135.1275 135.1275,-135.1275c74.5098,0 135.1275,60.6178 135.1275,135.1275c0,74.5097 -60.6177,135.1276 -135.1275,135.1276z" fill="black" id="svg_14" stroke-width="0.575827"/>
 </g>
</svg>