<?xml version="1.0"?>
<svg width="295" height="295" xmlns="http://www.w3.org/2000/svg" xmlns:svg="http://www.w3.org/2000/svg">
 <!-- Created with SVG-edit - https://github.com/SVG-Edit/svgedit-->
 <g class="layer">
  <title>Layer 1</title>
  <path d="m131.5368,57.219813c-1.3731,0.013 -2.8223,0.585 -3.9193,1.6389c-0.1588,0.1563 -0.297,0.3321 -0.4114,0.5234c-0.042,0.054 -0.048,0.054 -0.093,0.1185c-0.2219,0.3098 -0.4983,0.7125 -0.8287,1.2027c-0.6627,0.9841 -1.5436,2.318 -2.5673,3.9008c-2.0478,3.1661 -4.6672,7.3034 -7.2657,11.4406c-2.5987,4.1377 -5.1716,8.2813 -7.1161,11.4719c-0.9716,1.5941 -1.794,2.9515 -2.3804,3.9569c-0.2944,0.5048 -0.5225,0.9096 -0.6917,1.2212c0,0.013 0,0.015 -0.01,0.019c-0.076,0.1436 -0.1359,0.254 -0.1555,0.2932c-0.1082,0.2166 -0.1861,0.4472 -0.2308,0.6854c-0.1837,0.9636 -0.1322,1.5837 0.1371,2.6171c0.1374,0.5274 0.3192,0.9641 0.5047,1.3336c0.1853,0.3694 0.2486,0.5694 0.6917,1.0592c0.1239,0.1367 0.2617,0.2601 0.4112,0.3677c0.018,0.015 0.1072,0.076 0.2308,0.162c0,0 0,0 0.01,0c0.2443,0.1693 0.5814,0.3992 1.0033,0.6791c0.8412,0.5582 2.0059,1.3121 3.3898,2.2059c2.7724,1.7905 6.4474,4.1423 10.263,6.5616c7.631,4.8387 15.7528,9.9244 18.2763,11.3908c0.572,0.3327 0.7994,0.5941 1.6824,0.8413c0.8832,0.247 1.2855,0.1251 1.8694,0.1119c0.9358,-0.019 1.0712,-0.1673 1.5205,-0.3364c0.4511,-0.1698 0.943,-0.3999 1.4644,-0.7415c0.5242,-0.3434 0.9335,-0.7098 1.2711,-1.0593c0.3378,-0.3495 0.5374,-0.4383 0.9161,-1.2526l-0.01,0c0.8485,-1.8225 0.7123,-3.8872 -0.3553,-5.6268l0,0c-0.2038,-0.3309 -0.6319,-0.8235 -1.1091,-1.2213c-0.4786,-0.3989 -1.1142,-0.8609 -2.1623,-1.5703c-2.1068,-1.426 -5.6839,-3.6777 -12.0513,-7.6583c-2.843,-1.7774 -5.0824,-3.1878 -7.3218,-4.5987c7.2486,-2.6419 13.2064,-3.8898 20.7565,-3.8883c6.3256,0 9.6775,0.4057 15.2791,1.832c21.6798,5.5206 38.234,22.1506 43.7001,43.8933c2.8479,11.3291 2.2959,23.6873 -1.5579,34.6584c-8.5703,24.3995 -31.2862,40.5097 -57.1098,40.5097c-22.7777,0 -43.4491,-12.6131 -53.8508,-32.8639c-4.9336,-9.6042 -7.0433,-19.7137 -6.4868,-31.0817c0.3502,-7.1457 1.7691,-13.3032 4.7794,-20.6068c0.5911,-1.4373 0.9411,-2.3478 1.1591,-3.1656c0.1835,-0.6901 0.2276,-1.6221 0.1679,-2.1124l0.018,0.2619c0.0001,-0.087 0,-0.1748 -0.014,-0.2619c-0.4605,-4.0886 -5.1172,-6.4881 -8.7549,-4.555c-0.6337,0.3366 -1.6568,1.2261 -2.2122,2.1311c-0.6638,1.0816 -1.2765,2.5029 -2.2307,4.8915c-1.8415,4.6111 -3.5027,10.7221 -4.3744,16.0518c-0.7642,4.6261 -0.8672,15.9286 -0.1804,20.4511c2.5293,16.6658 9.5593,30.7278 21.0119,42.0177c5.4668,5.3892 10.6888,9.2192 17.3728,12.718c8.5527,4.4771 16.3374,6.709 28.1468,8.0883c0.01,0 0.018,0 0.025,0c0.7989,0.094 1.6662,0.083 3.016,0.082c1.3497,0 2.9942,-0.032 4.6298,-0.094c3.2542,-0.1251 6.5239,-0.3256 8.2378,-0.5857c7.8682,-1.1938 14.3601,-3.2152 21.3733,-6.6487c9.8777,-4.8361 18.0575,-11.3394 24.7072,-19.6474c29.1399,-36.4077 17.184,-90.1207 -24.6386,-110.674c-10.0249,-4.9266 -20.4595,-7.3475 -31.6051,-7.3342c0,0 0,0 -0.01,0c-8.5026,0.013 -15.1454,1.2133 -22.5324,3.5953c0.9554,-1.5413 1.6993,-2.7582 2.7916,-4.505c2.3211,-3.7125 4.4836,-7.2018 6.1004,-9.8456c0.8101,-1.3245 1.4848,-2.4449 1.9691,-3.2589c0.6856,-1.1404 0.6462,-1.0528 1.0168,-1.917c0.6325,-1.8762 0.196,-3.9676 -0.8102,-5.3425c-1.0901,-1.4894 -2.8108,-2.5377 -4.8604,-2.5299l0.0079,-0.0011zm5.764,7.1535c0,-0.0004 -0.01,0.1635 -0.014,0.237c0,-0.019 0.014,-0.069 0.014,-0.069c0.0001,-0.0006 -0.0002,-0.098 0,-0.1684l0,0.0004z" fill="#000000" id="svg_6" stroke-width="0.687947"/>
  <path d="m147.6995,0.287913c-81.2877,0 -147.4116,66.1302 -147.4116,147.4115c0,81.2815 66.1239,147.4117 147.4116,147.4117c81.2877,0 147.4116,-66.1302 147.4116,-147.4117c0,-81.2813 -66.1239,-147.4115 -147.4116,-147.4115zm0,282.5391c-74.5097,0 -135.1275,-60.6179 -135.1275,-135.1276c0,-74.5097 60.6178,-135.1275 135.1275,-135.1275c74.5097,0 135.1275,60.6178 135.1275,135.1275c0,74.5097 -60.6178,135.1276 -135.1275,135.1276z" fill="black" id="svg_5" stroke-width="0.575827"/>
 </g>
</svg>