<?xml version="1.0"?>
<svg width="295" height="295" xmlns="http://www.w3.org/2000/svg" xmlns:svg="http://www.w3.org/2000/svg">
 <!-- Created with SVG-edit - https://github.com/SVG-Edit/svgedit-->
 <g class="layer">
  <title>Layer 1</title>
  <path d="m147.699538,0.287913c-81.28772,0 -147.41165,66.13022 -147.41165,147.41162c0,81.28142 66.12393,147.41163 147.41165,147.41163c81.28772,0 147.41159,-66.13021 147.41159,-147.41163c0,-81.2814 -66.12387,-147.41162 -147.41159,-147.41162zm0,282.53913c-74.50966,0 -135.12754,-60.61784 -135.12754,-135.12751c0,-74.50966 60.61788,-135.12751 135.12754,-135.12751c74.50968,0 135.12755,60.61785 135.12755,135.12751c0,74.50967 -60.61787,135.12751 -135.12755,135.12751z" fill="black" id="svg_21" stroke-width="0.575827"/>
  <path d="m218.910258,142.535563l-85.98994,-55.27937c-1.88355,-1.22937 -4.31871,-1.29561 -6.26215,-0.22801c-1.97966,1.07968 -3.20328,3.14344 -3.20328,5.39262l0,110.55871c0,2.24919 1.22362,4.31295 3.20328,5.39264c0.91151,0.49806 1.93132,0.74972 2.93901,0.74972c1.15166,0 2.31543,-0.32426 3.32314,-0.97777l85.98994,-55.27934c1.75161,-1.12748 2.81921,-3.07723 2.81921,-5.16458c0,-2.08739 -1.0676,-4.03658 -2.81921,-5.16462zm-83.17132,49.19113l0,-88.05309l68.48771,44.02654l-68.48771,44.02655z" id="svg_20" stroke-width="0.575827"/>
  <rect fill="#000000" height="14.571745" id="svg_19" rx="7.285842" ry="7.285842" stroke-dashoffset="0" stroke-linecap="round" stroke-linejoin="round" stroke-miterlimit="4" stroke-width="2.455856" transform="matrix(0 1 1 0 2110.59 1644.46)" width="125.10688" x="-1559.315709" y="-2024.293395"/>
 </g>
</svg>