<?xml version="1.0"?>
<svg width="295" height="295" xmlns="http://www.w3.org/2000/svg" xmlns:svg="http://www.w3.org/2000/svg">
 <!-- Created with SVG-edit - https://github.com/SVG-Edit/svgedit-->

 <g class="layer">
  <title>Layer 1</title>
  <path d="m140.777405,65.505703c-24.87432,3.4991 -48.04204,18.40461 -60.96206,43.03824c-5.54947,10.58107 -8.55319,21.92243 -9.07794,34.25969c-0.24551,5.7681 0.0487,11.03152 0.93187,16.41538c1.10758,7.2802 13.54184,7.4478 13.43213,-2.04356c-3.67731,-22.08997 3.76159,-44.88091 20.76486,-60.73924c9.5479,-8.90503 22.00956,-15.03936 34.9442,-17.21327c24.82414,-4.17152 49.38366,5.36274 64.82665,25.17371c3.98999,5.11867 5.91578,8.38562 8.76631,14.89089c3.40242,7.76441 4.802,14.45279 5.34967,23.09786c-2.45975,-1.66763 -4.91884,-3.33448 -8.0274,-5.45799c-6.96197,-4.7559 -10.88926,-7.42179 -13.30476,-8.94637c-1.20175,-0.75846 -1.96186,-1.20383 -2.58764,-1.51643c-0.62405,-0.31148 -1.32345,-0.52951 -1.75574,-0.59013l-0.0132,0.00093c-2.26995,-0.31432 -4.4552,0.47519 -5.94739,2.16902l0,-0.006c-0.66659,0.75604 -0.66831,1.00159 -0.87562,1.50645c-0.20746,0.50467 -0.39923,1.09051 -0.51645,1.7843c-0.11723,0.6901 -0.1329,1.30076 -0.10406,1.84112c0.029,0.53828 -0.0632,0.74416 0.34062,1.71459c0.24999,0.60637 0.30465,1.07497 0.95663,1.8719c0.65198,0.79697 1.02236,0.91321 1.62218,1.35154c2.6448,1.93503 11.53506,7.9968 19.9489,13.66588c4.20679,2.83448 8.27976,5.5559 11.37002,7.60073c1.54262,1.02079 2.84303,1.87917 3.79598,2.49284c0.47785,0.30792 0.8668,0.55052 1.15117,0.72537c0,-0.00054 0,-0.00044 0,-0.00054c0.14423,0.0884 0.24867,0.15165 0.27107,0.16515c0.17794,0.10551 0.36748,0.19142 0.56373,0.25713c0.70348,0.23511 0.93675,0.2099 1.40024,0.23369c0.4635,0.0249 0.9951,0.0142 1.59966,-0.0824c1.18437,-0.18752 1.84491,-0.41432 2.75333,-1.03715c0.22471,-0.15273 0.42702,-0.33633 0.60102,-0.54513c0.0316,-0.0373 0.11722,-0.14809 0.23115,-0.29123c0,-0.00054 0.0132,-0.006 0.0145,-0.0142c0.24433,-0.3143 0.55754,-0.73207 0.94399,-1.26232c0.76987,-1.05597 1.79643,-2.51225 2.99832,-4.22953c2.40548,-3.437 5.50812,-7.94932 8.59297,-12.48571c3.08487,-4.5361 6.15971,-9.09418 8.49367,-12.62637c1.16685,-1.76579 2.14311,-3.27378 2.85673,-4.39852c0.35536,-0.56055 0.64487,-1.02608 0.86338,-1.39377c0.0448,-0.0756 0.0435,-0.0821 0.079,-0.14882c0.14488,-0.20385 0.26422,-0.4244 0.35365,-0.65812c0.58981,-1.60317 0.53251,-3.35601 -0.0804,-4.77094l0,-0.00053c-0.91514,-2.11153 -2.76743,-3.40991 -4.79015,-3.86025c-1.86756,-0.41614 -4.21496,0.0781 -5.85979,1.57376c-0.72179,0.77036 -0.65,0.68965 -1.51405,1.90842c-0.61905,0.86477 -1.46689,2.06395 -2.46436,3.4937c-1.99084,2.85374 -4.60667,6.64856 -7.37949,10.70787c-1.30462,1.91023 -2.22082,3.2248 -3.37569,4.90178c-0.87734,-8.6705 -2.63374,-16.04521 -6.45131,-24.79526c-0.00092,0.00013 -0.00092,0.00013 0,-0.006c-5.00669,-11.46926 -12.19705,-21.11177 -21.77933,-29.20322c-18.73911,-15.82352 -42.01509,-21.61644 -63.96287,-18.52894l0.0121,0.01zm66.79168,123.02755c-0.27528,0.049 -0.55293,0.11288 -0.82874,0.19854c-0.0948,0.0249 -0.18571,0.0607 -0.27555,0.10233l0.27739,-0.10089c-0.0751,0.0214 -0.17372,0.0647 -0.26395,0.0988l1.76904,-0.36971c-0.22589,0.0142 -0.45138,0.032 -0.67845,0.071l0.00026,-0.00007z" fill="#ffffff" id="svg_29" stroke-width="0.772426"/>
  <path d="m147.699595,0.287913c-81.28766,0 -147.41168,66.13022 -147.41168,147.41162c0,81.28142 66.12402,147.41163 147.41168,147.41163c81.28779,0 147.41129,-66.13021 147.41129,-147.41163c0,-81.2814 -66.1235,-147.41162 -147.41129,-147.41162zm0,282.53913c-74.50968,0 -135.12757,-60.61784 -135.12757,-135.12751c0,-74.50966 60.61789,-135.12751 135.12757,-135.12751c74.50969,0 135.12731,60.61785 135.12731,135.12751c0,74.50967 -60.61762,135.12751 -135.12731,135.12751z" fill="white" id="svg_28" stroke-width="0.575827"/>
  <circle cx="-1960.513399" cy="-1491.433509" fill="#ffffff" id="svg_27" r="14.345113" stroke-dashoffset="0" stroke-linecap="round" stroke-linejoin="round" stroke-miterlimit="4" stroke-width="18.976213" transform="matrix(1 0 0 1 2110.59 1644.46)"/>
 </g>
</svg>